<svg
  id="_0047_running"
  xmlns="http://www.w3.org/2000/svg"
  xmlns:xlink="http://www.w3.org/1999/xlink"
  viewBox="0 0 500 500"
  data-imageid="running-48"
  imageName="Running"
  class="illustrations_image"
  style="width: 144px;"
><defs><style
    >.cls-1_running-48{opacity:.15;}.cls-1_running-48,.cls-2_running-48,.cls-3_running-48,.cls-4_running-48,.cls-5_running-48,.cls-6_running-48,.cls-7_running-48,.cls-8_running-48,.cls-9_running-48,.cls-10_running-48,.cls-11_running-48,.cls-12_running-48,.cls-13_running-48,.cls-14_running-48,.cls-15_running-48,.cls-16_running-48,.cls-17_running-48{stroke-width:0px;}.cls-1_running-48,.cls-2_running-48,.cls-5_running-48{isolation:isolate;}.cls-1_running-48,.cls-17_running-48{fill:#68e1fd;}.cls-2_running-48{fill:url(#linear-gradient-4-running-48);opacity:.44;}.cls-3_running-48,.cls-18_running-48{fill:none;}.cls-4_running-48{fill:url(#linear-gradient);}.cls-5_running-48{fill:#fff;opacity:.62;}.cls-6_running-48{fill:url(#linear-gradient-11-running-48);}.cls-7_running-48{fill:url(#linear-gradient-10-running-48);}.cls-18_running-48{stroke:#000;stroke-linecap:round;stroke-miterlimit:10;stroke-width:1.31px;}.cls-8_running-48{fill:url(#linear-gradient-2-running-48);}.cls-9_running-48{fill:url(#linear-gradient-3-running-48);}.cls-10_running-48{fill:url(#linear-gradient-8-running-48);}.cls-11_running-48{fill:url(#linear-gradient-9-running-48);}.cls-12_running-48{fill:url(#linear-gradient-7-running-48);}.cls-13_running-48{fill:url(#linear-gradient-5-running-48);}.cls-14_running-48{fill:url(#linear-gradient-6-running-48);}.cls-16_running-48{fill:#ffb4a3;}</style><linearGradient
      id="linear-gradient-running-48"
      x1="-80.12"
      y1="3023.56"
      x2="-73.46"
      y2="2584.56"
      gradientTransform="translate(350.38 3400.7) scale(1 -1)"
      gradientUnits="userSpaceOnUse"
    ><stop offset="0" stop-color="#231f20" stop-opacity="0" /><stop
        offset="1"
        stop-color="#231f20"
      /></linearGradient><linearGradient
      id="linear-gradient-2-running-48"
      x1="-145.96"
      y1="3254.62"
      x2="110.48"
      y2="3221.36"
      xlink:href="#linear-gradient-running-48"
    /><linearGradient
      id="linear-gradient-3-running-48"
      x1="-149.17"
      y1="3094.18"
      x2="26.36"
      y2="3094.18"
      xlink:href="#linear-gradient-running-48"
    /><linearGradient
      id="linear-gradient-4-running-48"
      x1="-184.87"
      y1="3283.23"
      x2="-78.81"
      y2="3283.23"
      gradientTransform="translate(350.38 3400.7) scale(1 -1)"
      gradientUnits="userSpaceOnUse"
    ><stop offset="0" stop-color="#fff" stop-opacity="0" /><stop
        offset=".84"
        stop-color="#fff"
        stop-opacity=".84"
      /><stop offset=".97" stop-color="#fff" /></linearGradient><linearGradient
      id="linear-gradient-5-running-48"
      x1="-103.6"
      y1="2949.63"
      x2="-185.6"
      y2="3320.42"
      xlink:href="#linear-gradient-running-48"
    /><linearGradient
      id="linear-gradient-6-running-48"
      x1="-88.01"
      y1="3122.85"
      x2="26.36"
      y2="3122.85"
      xlink:href="#linear-gradient-running-48"
    /><linearGradient
      id="linear-gradient-7-running-48"
      x1="-50.72"
      y1="3262.89"
      x2="-233.27"
      y2="3198.59"
      xlink:href="#linear-gradient-running-48"
    /><linearGradient
      id="linear-gradient-8-running-48"
      x1="-199.57"
      y1="2965.33"
      x2="-138.06"
      y2="2965.33"
      xlink:href="#linear-gradient-running-48"
    /><linearGradient
      id="linear-gradient-9-running-48"
      x1="59.06"
      y1="3045.49"
      x2="41.81"
      y2="2939.56"
      xlink:href="#linear-gradient-running-48"
    /><linearGradient
      id="linear-gradient-10-running-48"
      x1="-91.07"
      y1="3204.15"
      x2="-92.17"
      y2="3186.5"
      gradientTransform="translate(-272.14 3357.62) rotate(11.2) scale(1 -1)"
      xlink:href="#linear-gradient-running-48"
    /><linearGradient
      id="linear-gradient-11-running-48"
      x1="-91.97"
      y1="3227.13"
      x2="-90.86"
      y2="3148.61"
      gradientTransform="translate(-272.24 3357.61) rotate(11.2) scale(1 -1)"
      xlink:href="#linear-gradient-running-48"
    /></defs><circle
    id="background_running-48"
    class="cls-1_running-48 targetColor"
    cx="251.36"
    cy="246.18"
    r="214.92"
    style="fill: #61ea98;"
  /><path
    id="shadow_running-48"
    class="cls-4_running-48"
    d="M203.61,443.26c-14.1,1.22-28.26-.47-42.4-.59-25.82-.21-51.36,4.84-76.67,9.87-3.07.62-6.98,2.38-6.42,5.46.33,1.75,2.05,2.82,3.64,3.64,31.92,16.35,69.9,12.55,105.7,10.5,88.52-5.12,177.68,2.93,265.82-6.75,4.03-.43,8.6-1.31,10.68-4.72,2.4-4-.17-9.49-4.19-11.81s-8.92-2.48-13.6-2.52l-67.38-.54,35.69-21.85c-7.97-4.63-17.88-3.66-27.04-2.53-34.92,4.28-71.2,11.97-106.4,11.98-27.22-.05-50.45,5.34-77.43,9.87Z"
  /><g id="character_running-48"><path
      class="cls-16_running-48"
      d="M224.09,35.63s0,16.08-6.56,16.65c-1.74,1.62-1.85,4.34-.23,6.08.07.08.15.16.23.23,3.16,3.45,3.74,14.36,4.59,16.94.85,2.59,11.81,3.45,20.4,1.44,8.58-2.01,6.02,22.39,6.02,22.39,0,0,12.06-1.15,18.95-7.47l-2.3-24.4s12.91-15.75,7.76-25.84c-5.16-10.09-13.74-20.67-27.86-16.94-14.12,3.73-20.04,2.14-21,10.91Z"
    /><path
      class="cls-15_running-48"
      d="M234.51,16.05s-14.44,7.52-12.44,13.56c1.99,6.04,11.81,8.61,15.22,15.21,3.41,6.6,6.02,11.48,6.02,11.48,0,0,3.16-3.15,3.02-3.73s3.02-7.32,6.75-5.88c3.73,1.44,2.3,9.61-1,11.9s4.59,9.33,4.59,9.33l4.87,3.45s2.62-.14,6.85-3.6c4.23-3.45,12.06-10.5,10.91-18.37-.89-5.63-2.17-11.19-3.83-16.64-.18-.58-2.51-9.19-3.44-10.34-12.21-15.36-37.52-6.38-37.52-6.38Z"
    /><path
      class="cls-15_running-48"
      d="M275.19,25.87c2.31-5.03,13.12-6.71,20.53-3.15,2.4,1.14,4.48,3.35,8.61,7.76,7,7.44,8.12,11.25,13.78,13.78,2.95,1.31,5.96,1.75,5.89,2.15-.12.67-8.35-2.2-11.63,1.14-2.87,2.93.92,7.63.71,17.38,0,2.62-.42,13.35-7.6,20.09-3.61,3.37-8.52,5.39-9.76,4.16-1.55-1.52,3.46-7.1,1.43-9.9s-7.64.14-9.91-2.87c-.91-1.22-.58-2.48-.42-5.6,0,0,.08-1.61-.58-11.34-.28-4.12-2.44-9.46-6.75-19.95-4.23-10.26-5.25-11.58-4.3-13.65Z"
    /><path
      class="cls-17_running-48 targetColor"
      d="M248.83,90.19s21.09-7.66,28.94,1.31c7.85,8.98-1.88,40.58-1.51,51.3.37,10.72-4.2,40.19,0,48.99,4.2,8.81-30.65,31.77-39.06,24.94-8.41-6.84-8.92-12.44-9.31-13.58s-1.19-54.15-1.97-55.67-5.01-10.72-3.85-15.75c1.17-5.03,22.31-30.29,26.75-41.54Z"
      style="fill: rgb(222, 250, 233);"
    /><path
      class="cls-18_running-48"
      d="M247.76,60.46s-8.03,15.55-7.21,29.08c.83,13.53-11.81,31.38-11.81,31.38,0,0-5.68,8.81-6.25,17.42-.56,8.61.98,59.49,23.62,62.5s11.18,1.19,11.18,1.19"
    /><path
      class="cls-8_running-48"
      d="M276.26,191.82c3.67,7.69-22.46,26.25-34.73,26.16,9.87-6.06,18.47-14.61,16.26-19.24-4.2-8.81.37-38.28,0-49.01-.37-10.72,9.36-42.3,1.51-51.29-2.89-3.31-7.56-4.37-12.32-4.38.69-1.25,1.31-2.55,1.85-3.87,0,0,21.09-7.66,28.94,1.31,7.85,8.98-1.88,40.58-1.51,51.3.37,10.72-4.2,40.21,0,49.02Z"
    /><path
      class="cls-17_running-48 targetColor"
      d="M376.74,355.29l-6.44,17.34-75.29-28.39-1.64-.8-.55-.26c-.49-.25-1.04-.52-1.64-.85l-2.43-1.31h0c-1.12-.6-2.34-1.31-3.66-2.03l-.87-.51c-4.81-2.79-9.47-5.82-13.96-9.08-.33-.24-.66-.47-.98-.73-.96-.71-1.92-1.44-2.86-2.19-1.68-1.31-3.32-2.69-4.92-4.12-.54-.49-1.08-.97-1.6-1.48s-1.31-1.25-1.98-1.9c-2.37-2.31-4.57-4.8-6.56-7.44h0c-.71-.96-1.39-1.93-2.01-2.93-.42-.66-.83-1.31-1.21-2.01,0,0-8.22,25.84-8.22,27.76s-4.24,49.28-19.56,77.24l-3.5,8.79-.33.8-15.3-7.65,6.89-111.78,22.31-93.18s32-4.02,45.86-16.65c0,0,11.56,19.53,13.28,23.26,1.72,3.73,2.62,31.01-2.62,47.38-5.25,16.37,16.84,51.49,23.35,52.25,6.51.76,66.46,40.51,66.46,40.51Z"
      style="fill: rgb(222, 250, 233);"
    /><path
      class="cls-9_running-48"
      d="M376.74,355.29l-3.23,8.64-3.23,8.66-75.28-28.35-1.64-.8-.55-.26c-.49-.25-1.04-.52-1.64-.85s-1.55-.8-2.43-1.31h0c-1.12-.59-2.35-1.31-3.66-2.03l-.87-.51c-4.81-2.78-9.47-5.81-13.96-9.08-.33-.24-.66-.47-.98-.73-.96-.7-1.92-1.43-2.86-2.19-1.68-1.31-3.32-2.69-4.92-4.12-.54-.49-1.08-.97-1.6-1.48s-1.31-1.25-1.98-1.9c-2.37-2.32-4.56-4.8-6.56-7.44h0c-.7-.96-1.38-1.94-2.01-2.93-.42-.66-.83-1.31-1.21-2.01,0,0-8.22,25.84-8.22,27.76s-4.24,49.28-19.56,77.24l-3.5,8.79-.33.8-15.3-7.65,6.89-111.78,22.31-93.18s17.3-2.17,31.97-8.35c5.06-1.98,9.75-4.79,13.89-8.31,0,0,11.56,19.53,13.28,23.26,1.72,3.73,2.62,31.01-2.62,47.38-5.25,16.37,16.84,51.49,23.35,52.25,6.51.76,66.46,40.51,66.46,40.51Z"
    /><path
      class="cls-16_running-48"
      d="M301.34,159.47c-6.21,3.48-26.47,19.15-26.47,19.15l-1.09-10.03-1.75-15.97,5.77-28.78h0l2.72-13.56,23.35,34.22s5.84,10.3-2.53,14.97Z"
    /><path
      class="cls-16_running-48"
      d="M202.13,413.94l-4.46,9.31s5.55,7.61,13.49,6.3l4.59-9.69-13.62-5.92Z"
    /><path
      class="cls-17_running-48 targetColor"
      d="M214.11,430.61l-1.81,17.14s-3.45,4.2-6.56,3.06c-3.11-1.14-14.94-3.45-17.06-3.83s-29.67-7.27-36.37-20.67c-1.61-3.23-1.9-5.25-1.31-6.56,1.82-3.94,12.24.14,16.6.76,5.75.8,17.7,1.31,17.7,1.31,0,0,9.38-1.97,11.21-1.08s2.62,2.62,3.94,4.5,8.99,5.46,10.62,4.3,3.04,1.06,3.04,1.06Z"
      style="fill: rgb(222, 250, 233);"
    /><path
      class="cls-16_running-48"
      d="M371.28,369.95s8.28,5.92,8.57,9.52,10.33,3.27,10.76-4.76c.34-4.59-.82-9.17-3.31-13.05l-10.5-6.37-5.53,14.66Z"
    /><path
      class="cls-17_running-48 targetColor"
      d="M409.67,413.28c-.71,1.42-3.29,3.32-5.56,4.79h0l-.28.18c-1.9,1.21-3.5,2.09-3.5,2.09-2.53-.26-5-.97-7.28-2.1-3.06-1.73-2.1-11.1-2.35-13.98s-10.66-15.12-12.39-18.19,1.59-6.64,1.59-6.64l3.45-20.21,1.39-2.78c1.47-2.81,14.94-2.49,14.94-2.49,0,0,3.64.38,5.35,2.49s1.15,15.88.96,17.8,1.72,16.27,3.64,19.53c1.92,3.25,1.36,16.84.05,19.52Z"
      style="fill: rgb(222, 250, 233);"
    /><path
      class="cls-16_running-48"
      d="M268.58,114.69s-21.81,37.51-25.84,42.3c-4.03,4.79-16.64,1.72-24.11-1.31-7.47-3.03-33.11-8.23-34.85-8.05s-11.09.2-11.81,0-5.17-4.97-6.25-5.55c-.39-.21-.37-1.25-.21-2.76.29-2.62.94-6.56.34-9.87-.53-3.01,1.04-6,3.82-7.28,0,0,8.05,2.3,9.38.58.89-1.14,3.11-1.52,4.86-1.09.82.15,1.56.62,2.03,1.31.39.66,1.06,2.05,1.77,3.57,1.31,2.91,2.82,6.38,2.82,6.38,0,0,28.68,8.31,38.64,4.48,9.96-3.83,15.75-34.33,19.69-45.06s17.74-9.95,17.74-9.95c1.67.33,3.27.93,4.74,1.77,12.53,7.52-2.77,30.53-2.77,30.53Z"
    /><path
      class="cls-2_running-48"
      d="M263.85,107.78s-21.83,37.52-25.84,42.3c-4.02,4.78-16.65,1.73-24.12-1.31s-33.11-8.23-34.83-8.03-11.1.18-11.81,0c-.64-.39-1.22-.86-1.73-1.4.29-2.62.94-6.56.34-9.87-.53-3.01,1.04-6,3.82-7.28,0,0,8.05,2.3,9.38.58.89-1.14,3.11-1.52,4.86-1.09,1.01,2.28,1.89,4.33,1.89,4.33l1.92.52c1.31,2.91,2.82,6.38,2.82,6.38,0,0,28.68,8.31,38.64,4.48,9.96-3.83,15.75-34.33,19.69-45.06,3.94-10.72,17.74-9.92,17.74-9.92,1.67.33,3.27.93,4.74,1.77,1.73,9.73-7.49,23.61-7.49,23.61Z"
    /><path
      class="cls-17_running-48 targetColor"
      d="M274.62,24.7c.6-.35,1.34-.4,1.98-.13.75.43.79,1.46.84,2.32.11,1.38.34,2.74.68,4.08.29.85.33,1.75.13,2.62-.24.84-1.12,1.33-1.96,1.09-.02,0-.04-.01-.06-.02-.48-.32-.81-.82-.93-1.38-.58-1.6-1.17-3.2-1.61-4.84-.3-.8-.49-1.63-.58-2.48-.01-.89.79-.98,1.51-1.27Z"
      style="fill: rgb(222, 250, 233);"
    /><path
      class="cls-13_running-48"
      d="M248.09,306.48s-8.22,25.84-8.22,27.76-4.21,49.37-19.53,77.33l-3.5,8.79-1.09-.46-14.54-6.39,6.89-111.78,22.31-93.18,17.68,97.93Z"
    /><path
      class="cls-14_running-48"
      d="M376.74,355.29l-3.23,8.64s-60.87-28.31-71.71-37.17-33.99-33.02-32.02-52.23c1.97-19.21-7.4-74.43-7.4-74.43,5.06-1.98,9.75-4.79,13.89-8.31,0,0,11.56,19.53,13.28,23.26,1.72,3.73,2.62,31.01-2.62,47.38-5.25,16.37,16.84,51.49,23.35,52.25,6.51.76,66.47,40.62,66.47,40.62Z"
    /><path
      class="cls-12_running-48"
      d="M288,156.31c-3.7,1.85-14.23,12.28-14.23,12.28l-1.75-15.97,5.77-28.78h0s10.5,16.13,12.4,20.66c1.9,4.53,1.5,9.96-2.2,11.81Z"
    /><path
      class="cls-10_running-48"
      d="M212.32,447.75s-3.45,4.2-6.56,3.06c-3.11-1.14-14.94-3.45-17.06-3.83s-29.67-7.27-36.37-20.67c-1.61-3.23-1.9-5.25-1.31-6.56,1.44,2.41,8.36,12.36,27.89,18.49,22.44,7.06,33.41,9.52,33.41,9.52Z"
    /><path
      class="cls-11_running-48"
      d="M409.67,413.28c-.71,1.42-3.29,3.32-5.56,4.79,3.81-2.28,1.43-23.78-1.04-30.92s-3.35-33.2-3.35-33.2c0,0,3.64.38,5.35,2.49s1.15,15.88.96,17.8,1.72,16.27,3.64,19.53c1.92,3.25,1.31,16.84,0,19.52Z"
    /><path
      class="cls-16_running-48"
      d="M249.69,53.52s0-3.02,1.23-3.64,2.72.8,2.03,2.53-2.22,5.79-3.27,5.11-2.09-.25,0-4Z"
    /><circle class="cls-3_running-48" cx="251.65" cy="56.12" r="2.18" /><circle
      class="cls-15_running-48"
      cx="250.95"
      cy="56.12"
      r="2.18"
    /><circle
      class="cls-17_running-48 targetColor"
      cx="251.12"
      cy="56.12"
      r="1.27"
      style="fill: rgb(222, 250, 233);"
    /><path
      class="cls-15_running-48"
      d="M248.81,56.3l-1.31,3.6s0,.94.83.68c1.18-.7,2.29-1.52,3.31-2.45l-2.82-1.82Z"
    /><rect
      class="cls-17_running-48 targetColor"
      x="250.82"
      y="194.72"
      width="15.95"
      height="19.95"
      rx="5"
      ry="5"
      transform="translate(-34.83 54.17) rotate(-11.2)"
      style="fill: rgb(222, 250, 233);"
    /><rect
      class="cls-7_running-48"
      x="250.82"
      y="194.72"
      width="15.95"
      height="19.95"
      rx="5"
      ry="5"
      transform="translate(-34.83 54.17) rotate(-11.2)"
    /><rect
      class="cls-6_running-48"
      x="251.99"
      y="195.61"
      width="13.69"
      height="17.11"
      rx="4.29"
      ry="4.29"
      transform="translate(-34.73 54.16) rotate(-11.2)"
    /><rect
      class="cls-17_running-48 targetColor"
      x="252.09"
      y="198.05"
      width="11.89"
      height="4"
      rx="2"
      ry="2"
      transform="translate(-33.94 53.93) rotate(-11.2)"
      style="fill: rgb(222, 250, 233);"
    /><path
      class="cls-5_running-48"
      d="M254.3,199.02l6.58-1.3c.92-.18,1.82.42,2.01,1.34h0c.18.92-.42,1.82-1.34,2.01l-6.58,1.3c-.92.18-1.82-.42-2.01-1.34h0c-.18-.92.42-1.82,1.34-2.01Z"
    /></g></svg>
